<svg width="19" height="22" viewBox="0 0 19 22" fill="none" xmlns="http://www.w3.org/2000/svg">
<path fill-rule="evenodd" clip-rule="evenodd" d="M13.25 0H5.25V4H13.25V0ZM0 1.25H3.75V5.5H14.75V1.25H18.5V21.75H0V1.25ZM4.75 10.125C4.75 9.82663 4.86853 9.54048 5.0795 9.3295C5.29048 9.11853 5.57663 9 5.875 9C6.17337 9 6.45952 9.11853 6.6705 9.3295C6.88147 9.54048 7 9.82663 7 10.125C7 10.4234 6.88147 10.7095 6.6705 10.9205C6.45952 11.1315 6.17337 11.25 5.875 11.25C5.57663 11.25 5.29048 11.1315 5.0795 10.9205C4.86853 10.7095 4.75 10.4234 4.75 10.125ZM5.875 7C5.0462 7 4.25134 7.32924 3.66529 7.91529C3.07924 8.50134 2.75 9.2962 2.75 10.125C2.75 10.9538 3.07924 11.7487 3.66529 12.3347C4.25134 12.9208 5.0462 13.25 5.875 13.25C6.7038 13.25 7.49866 12.9208 8.08471 12.3347C8.67076 11.7487 9 10.9538 9 10.125C9 9.2962 8.67076 8.50134 8.08471 7.91529C7.49866 7.32924 6.7038 7 5.875 7ZM11.461 13.293L10.754 12.586L9.34 14L10.047 14.707L11.34 16L10.047 17.293L9.34 18L10.754 19.414L11.461 18.707L12.754 17.414L14.047 18.707L14.754 19.414L16.168 18L15.461 17.293L14.168 16L15.461 14.707L16.168 14L14.754 12.586L14.047 13.293L12.754 14.586L11.461 13.293Z" fill="black"/>
</svg>
