<?xml version="1.0" encoding="UTF-8"?>
<svg id="Layer_1" data-name="Layer 1" xmlns="http://www.w3.org/2000/svg" viewBox="0 0 595.28 841.89">
  <defs>
    <style>
      .cls-1 {
        fill: #124469;
      }

      .cls-2 {
        fill: #61889d;
      }

      .cls-3 {
        fill: #b8b9b8;
      }

      .cls-4 {
        fill: #528db0;
      }

      .cls-5 {
        fill: #1e425b;
      }
    </style>
  </defs>
  <path class="cls-3" d="M63.02,706.4c-14.38,0-27.15-4.22-38.42-10.63-22.88-13.02-28.89-39.72-21.77-64.58,2.92-10.19,6.93-19.46,12.53-28.53l29.56-47.94,131.55-214.27,22.48-36.88c18.54-30.41,25.91-74.1,22.1-109.37-1.14-10.51-4.82-20.8-12.5-27.69-8.28-7.42-12.19-17.63-8.34-28.69,3.14-9.02,12.39-16.37,23.46-16.37l149.17.12c10.44,0,18.85,7.6,22.02,15.86,3.85,10.06.98,20.4-6.51,27.49-7.65,7.24-12.66,16.4-13.9,27.45-4.39,39.12,2.99,80.33,23.75,114.21l91.34,149.11,76.64,124.57,17.88,29.68c7.88,13.08,11.51,27.98,11.22,43.35-.67,36.43-32.62,53.25-67.66,53.24l-464.58-.13ZM61.43,684.07h473.33c20.35-1.86,38.51-11.52,38.36-32.54-.07-9.78-3.23-18.39-7.15-27.2l-14.27-24.25-176.12-286.39c-20.12-38.06-28.82-81.93-23.38-124.51,1.95-15.25,7.76-28.71,18.53-39.05,1.29-1.24,3.98-4.4,1.93-5.94l-149.61-.1c-1.9,1.86-1.2,3.46.3,4.82,10.4,9.44,16.48,21.87,18.97,35.78,7.05,39.38-2.21,95.05-23.13,129.18l-140.1,228.57-33.79,54.65c-6.61,10.7-13.28,20.45-18.09,32.05-7.8,18.81-7.73,38.69,10.79,48.64,7.12,3.83,14.33,5.27,23.44,6.27Z"/>
  <g>
    <path class="cls-4" d="M351.42,281.97l-.59.42c3.31,14.58,9.86,27.96,17.61,41.13l9.49,16.13,5.87,8.72,11.74,19.24c2.39,3.91,5.35,7.31,7.59,11.49l4.72,8.81c1.95,1.71,7.92,12.57,11.6,18.64,2.58,4.25,5.27,7.99,7.73,12.42l4.18,7.52,5.66,9,5.03,8.7,5.75,8.76,6.72,10.47c1.29,2.01,1.67,3.17,3.04,5.58l3.45,6.08c1.83,3.47,3.38,6.67,6.73,8.92.03,5.31,4.44,8.09,6.65,11.95l10.77,18.87,4.93,6.95c2.81,3.95,4.47,8.43,7.78,12.19,1.5,1.71,1.46,5.17,2.07,6.95,3.89,3.61,5.82,7.35,8.51,11.85l4.27,7.15c3.73,3.69,5.53,7.25,8.01,11.46l8.02,13.63,12.5,20.32c1.71,2.78,3.22,5.16,4.93,7.91l6.31,10.1,2.42,8.49c.86,3.03,3.64,4.13,4.47,7.75l1.82,7.88c1.19,5.17-.08,8.27-1.9,12.46-2.01,4.62-4.67,5.92-8.7,8.24-4.24,2.45-7.66,3.56-12.79,3.42-8.93-.23-17.64.53-27.02,1.8l-449.8-.03c-5.55,0-10.07-2.51-15.14-3.66-4.14-.95-8.46-5.04-9.55-9.13l-1.75-6.53c-1.94-7.24.72-14.47,3.68-21.15,2.3-5.18,4.15-10.79,7.66-15.19,2.69-3.36,4.38-6.91,6.67-10.65l12.11-19.83,9.48-14.95,11-18.18,13.01-20.96c2.79-4.49,5.27-8.89,8.14-13.42l11.35-17.91,16.89-28.59,10.66-16.53,8.45-14.49,10.38-16.84c1.39-2.25,2.5-4.17,3.96-6.32l3.24-4.8,18.58-30.6,3.65-5.48c1.89-2.83,3.27-5.65,5.25-8.46l6.71-9.52,1.96-5.33c3.21-4,5.19-8.1,7.86-12.34,1.21-1.92,3.44-3.28,4.16-5.85,1.17-4.15,3.81-7.56,6-11.06l5.18-8.28,5.81-10.65,4.59-11.86,6.43-16.51,2.56-13.84c2.85-6.64,3.21-12.99,3.87-20.12l1.01-10.84.71-7.31c1.46-15.06.33-37.09-3.52-51.2-.77-2.82-.6-5-2.26-7.82-1-1.7-2.18-4.04-3.05-5.91-1.42-3.04,2.08-6.02,5.38-6.02l87.07-.15c3.95,0,7.28-.09,11.54.88-6.85,14.81-10.34,29.19-11.11,45.14-1.13,23.34,1.17,46.76,7,69.4,1.12,4.36,1.58,8.61,4.82,11.51ZM281.99,477.87c-.34.12-.36.33-.34.52.69,7.55.3,11.04,7.58,16.73-.19.12-.17.28-.12.36-.72,2.76.34,5.09,1.9,7.48l5.71,8.77c1.58,2.42,1.17,3.38,3.63,4.84,7.34,4.35,14.87,8.28,23.29,9.35,18.44,2.34,34.21-5.84,42.53-21.72,10.21-19.47,5.46-29.08-1.79-47.24l-7.27-18.22-7.9-16.65c-.96-2.02-1.76-3.95-3.37-5.12-.63-.45-1.18-1.41-1.49-2.13.87.27,1.24-.24.96-.9l-8.63-20.29-3.11-7.9c-.54-1.37-1.25-2.14-2.69-1.95-.36-.83-.59-1.79-.42-2.68.6-3.2-1.86-5.88-3.14-8.94l-8.03-19.29c-1.5-5.72-4.38-9.71-7.5-14.45-3.76-5.72-8.24-9.91-14.13-13.45-5.95-3.58-11.21-5.99-18.69-5.01-6.3.83-18.41.4-20.6,2.79s-4.98,2.82-7.12,5.3l-8.63,9.96c-1.95,2.25-3.11,3.17-4.45,5.62-2.32,4.26-2.53,8.13-3.16,12.57-.93,6.59-.76,11.96,1.42,18.28,1.08,3.13,1.36,6.47,2.8,9.72l6.75,15.22c1.18,2.67.55,4.89,3.31,6.95l1.75,6.29c3.03,4.25,3.73,8.94,6.04,13.39l4.16,8.01c.51,2.87,1.6,4.17,2.77,6.55,1.4,2.84,1.28,6.74,3.58,9.3,2.43,2.71,2.63,6.51,4.17,9.56,2.25,4.45,4.44,8.38,5.89,13.2.67,2.24,2.21,4.45,4.29,5.2ZM252.9,463.51l-2.68-1.15c-.19-.75-.26-1.57-.65-2.11-.45-.63-1.41-.66-2.26-.88-9.92-2.53-19.25.02-28.59,3.17-7.19,2.42-13.73,11.1-18.45,18.22l-5.77,8.7-4.44,6.75-7.72,11.13-12.25,17.83-5.15,8.63c-3.97,3.93-6.39,8.67-9.58,13.19l-4.14,5.86c-4.65,6.59-8.81,12.96-12.96,19.8-1.6,2.64-5.2,4.24-5.94,7.66-.69,3.22-3.03,5.49-4.64,8.17-4.64,7.74-4.98,16.89-5.58,25.66-.44,6.53,1.41,11.4,4.66,16.69,3.23,5.27,6.15,10.26,12.09,13.64,2.55,2.12,6.19,2.91,8.36,6.2l14.37,1.67c6.28.73,13.44.44,18.67-3.08,2.46-1.66,4.85-1.73,7.33-3.08,2.75-1.48,6.48-4.12,8.27-6.67l5.66-8.04,7.04-11.28,16.96-24.13,12.54-18.46c3.43-5.05,9.15-8.79,11.51-14.59,1.92-4.72,5.48-11.01,8.74-13.34,5.77-4.12,2.75-10.36,9.41-11.63,1.11-7.16,7.79-13.61,10.04-22.39,1.77-6.93,2.53-13.65,2.11-20.63,2.16-3.52.24-6.91-2.99-8.77-2.36-8.23-7.03-14.4-13.85-19.06-3.55-2.42-8.36-6.88-10.14-3.68ZM471.76,603.66c3.33-5.22,6.29-10.46,6.54-16.78.57-14.17-1.02-20.9-9.22-32.26-1.86-2.58-2.45-4.62-5.65-6.49-4.1-2.4-8.21-5.14-12.94-7.07-8.59-3.5-18-3.45-27.22-2.86-5.47.35-11.12-.8-11.69-.46-2.79,1.71-10.07,0-14.39-.34-6.84-.55-14.42,1.89-26.04.59-2.36-.26-5.54.76-8.19.1-7.91-1.95-15.3-.19-22.96-.13l-13.58.12c-23.18.2-36.1-3.52-56.96,14.42-.4,2.54-1.86,4.9-3.03,7.07-7.51,13.93-7.07,27.24-.51,41.39,2.72,5.87,5.96,10.42,11.78,14.02,2.2,1.36,4.27,4.12,7.59,3.95l2.93,2.52,13.87,2.61,136.27.43c9.66.03,17.69-5.04,25.09-10.83l4.07-4.05c2.03-2.02,2.81-3.71,4.23-5.94Z"/>
    <path class="cls-2" d="M351.42,281.97c-3.24-2.91-3.7-7.15-4.82-11.51-5.83-22.65-8.13-46.06-7-69.4.77-15.95,4.26-30.33,11.11-45.14-4.26-.97-7.59-.89-11.54-.88l-87.07.15c-3.3,0-6.8,2.98-5.38,6.02.87,1.87,2.05,4.22,3.05,5.91,1.66,2.81,1.49,5,2.26,7.82,3.84,14.11,4.98,36.14,3.52,51.2l-.71,7.31-1.01,10.84c-.66,7.13-1.02,13.48-3.87,20.12l-2.56,13.84-6.43,16.51-4.59,11.86-5.81,10.65-5.18,8.28c-2.19,3.5-4.83,6.92-6,11.06-.73,2.57-2.95,3.93-4.16,5.85-2.67,4.24-4.65,8.35-7.86,12.34l-1.96,5.33-6.71,9.52c-1.98,2.81-3.36,5.63-5.25,8.46l-3.65,5.48-18.58,30.6-3.24,4.8c-1.45,2.15-2.57,4.07-3.96,6.32l-10.38,16.84-8.45,14.49-10.66,16.53-16.89,28.59-11.35,17.91c-2.87,4.53-5.35,8.93-8.14,13.42l-13.01,20.96-11,18.18-9.48,14.95-12.11,19.83c-2.29,3.75-3.98,7.29-6.67,10.65-3.51,4.39-5.36,10-7.66,15.19-2.96,6.68-5.62,13.91-3.68,21.15l1.75,6.53c1.1,4.09,5.41,8.18,9.55,9.13,5.07,1.16,9.58,3.66,15.14,3.66l449.8.03c9.38-1.27,18.09-2.03,27.02-1.8,5.14.13,8.55-.98,12.79-3.42s6.68-3.62,8.7-8.24c1.82-4.18,3.09-7.29,1.9-12.46l-1.82-7.88c-.84-3.62-3.61-4.72-4.47-7.75l-2.42-8.49-6.31-10.1c-1.71-2.75-3.22-5.13-4.93-7.91l-12.5-20.32-8.02-13.63c-2.48-4.22-4.27-7.77-8.01-11.46l-4.27-7.15c-2.69-4.5-4.62-8.24-8.51-11.85-.61-1.78-.57-5.24-2.07-6.95-3.32-3.77-4.98-8.24-7.78-12.19l-4.93-6.95-10.77-18.87c-2.21-3.87-6.62-6.64-6.65-11.95-3.35-2.25-4.9-5.45-6.73-8.92l-3.45-6.08c-1.37-2.41-1.74-3.57-3.04-5.58l-6.72-10.47-5.75-8.76-5.03-8.7-5.66-9-4.18-7.52c-2.46-4.43-5.15-8.16-7.73-12.42-3.68-6.07-9.65-16.93-11.6-18.64l-4.72-8.81c-2.24-4.18-5.2-7.58-7.59-11.49l-11.74-19.24-5.87-8.72-9.49-16.13c-7.75-13.16-14.3-26.55-17.61-41.13,1.56,1.33,2.27,3.67,2.98,5.76,4.89,14.38,11.19,27.03,19.23,40.08l86.73,140.84,80.13,130.1,15.26,25.05c7.93,13.02,13.25,35.14.07,43.91-5.83,3.88-12.89,6.38-20.04,6.34l-21.28-.12-453.18-.05c-5.84,0-10.78-1.88-15.62-3.61-19.68-7.04-13.79-32.14-3.71-48.52l55.17-89.57,132.09-215.58c16.94-27.64,22.7-60.57,25.62-91.93l-.1-23.31c-.07-16.89-4.22-32.78-13.65-47.89l114.05.07c-8.72,13.82-12.95,28.52-13.16,44.23l-.36,27.87c.91,2.69,1.16,5.4.84,8.31,1.21,16.59,5.05,32.15,9.54,47.59Z"/>
    <path class="cls-2" d="M471.76,603.66c-1.42,2.23-2.2,3.92-4.23,5.94l-4.07,4.05c-7.4,5.79-15.43,10.86-25.09,10.83l-136.27-.43-13.87-2.61-2.93-2.52c-3.32.17-5.4-2.59-7.59-3.95-5.82-3.6-9.06-8.14-11.78-14.02-6.56-14.15-7.01-27.46.51-41.39,1.17-2.17,2.63-4.53,3.03-7.07,20.86-17.94,33.78-14.21,56.96-14.42l13.58-.12c7.66-.07,15.05-1.83,22.96.13,2.65.65,5.82-.37,8.19-.1,11.61,1.3,19.19-1.14,26.04-.59,4.32.35,11.61,2.05,14.39.34.56-.35,6.21.8,11.69.46,9.22-.58,18.63-.64,27.22,2.86,4.73,1.93,8.84,4.67,12.94,7.07,3.21,1.87,3.79,3.91,5.65,6.49,8.2,11.36,9.79,18.09,9.22,32.26-.25,6.32-3.21,11.56-6.54,16.78ZM471.57,601.1c6.24-11.59,7.03-24.38,1.76-36.27-7.4-16.71-24.07-25-42.06-25.07l-33.74-.14-34.49.13-26.51-.24-30.1.34c-22.47-1.08-42.19,15.19-43.7,37.74-1.54,23.03,13.94,41.57,36.92,44.65l132.41.43c16.65.05,31.28-6.31,39.5-21.58Z"/>
    <path class="cls-2" d="M250.23,462.36c-17.3-5.33-35.3.36-45.61,15.52l-71.8,105.57c-6.21,9.13-9.29,17.85-8.78,29.07.75,16.5,11.43,30.45,26.4,35.84,15.72,5.66,34.98,2,44.9-12.36l54.27-78.53,18.45-27.23c6.19-9.13,10.63-19.59,9.98-30.58-.98-16.61-10.29-29.74-25.13-36.13,1.79-3.2,6.6,1.26,10.14,3.68,6.82,4.65,11.49,10.83,13.85,19.06,3.23,1.86,5.15,5.25,2.99,8.77.42,6.98-.34,13.7-2.11,20.63-2.24,8.78-8.92,15.23-10.04,22.39-6.65,1.27-3.64,7.51-9.41,11.63-3.26,2.33-6.82,8.62-8.74,13.34-2.36,5.8-8.08,9.54-11.51,14.59l-12.54,18.46-16.96,24.13-7.04,11.28-5.66,8.04c-1.79,2.55-5.53,5.18-8.27,6.67-2.49,1.34-4.88,1.42-7.33,3.08-5.23,3.52-12.39,3.81-18.67,3.08l-14.37-1.67c-2.17-3.29-5.82-4.08-8.36-6.2-5.93-3.39-8.85-8.37-12.09-13.64-3.25-5.29-5.1-10.16-4.66-16.69.6-8.77.93-17.92,5.58-25.66,1.61-2.68,3.95-4.95,4.64-8.17.74-3.42,4.34-5.02,5.94-7.66,4.15-6.83,8.31-13.21,12.96-19.8l4.14-5.86c3.18-4.51,5.6-9.25,9.58-13.19l5.15-8.63,12.25-17.83,7.72-11.13,4.44-6.75,5.77-8.7c4.72-7.11,11.26-15.8,18.45-18.22,9.35-3.15,18.68-5.7,28.59-3.17.85.22,1.81.25,2.26.88.39.54.46,1.36.65,2.11Z"/>
    <path class="cls-2" d="M330.47,381.11c-1.74-.43-1.62-2.07-2.29-3.57l-16.31-36.35c-11.21-19.18-35.48-24.58-53.97-14.83-19.24,10.14-26.62,33.39-17.98,53.68l18.52,43.5,23.53,54.34c-2.08-.75-3.62-2.96-4.29-5.2-1.45-4.82-3.64-8.74-5.89-13.2-1.54-3.06-1.74-6.86-4.17-9.56-2.3-2.56-2.18-6.45-3.58-9.3-1.17-2.38-2.27-3.68-2.77-6.55l-4.16-8.01c-2.31-4.44-3.01-9.14-6.04-13.39l-1.75-6.29c-2.76-2.06-2.13-4.27-3.31-6.95l-6.75-15.22c-1.44-3.25-1.72-6.59-2.8-9.72-2.18-6.32-2.35-11.69-1.42-18.28.62-4.44.84-8.31,3.16-12.57,1.34-2.45,2.5-3.37,4.45-5.62l8.63-9.96c2.14-2.47,4.89-2.86,7.12-5.3s14.29-1.97,20.6-2.79c7.48-.98,12.74,1.43,18.69,5.01,5.89,3.54,10.37,7.73,14.13,13.45,3.12,4.74,6,8.74,7.5,14.45l8.03,19.29c1.27,3.06,3.74,5.74,3.14,8.94Z"/>
    <path class="cls-2" d="M289.1,495.48c.67.43,1.29,1.2,1.7,2.31,2.55,7.04,7.11,12.36,12.82,17.48,9.22,8.28,22.21,11.04,35.12,8.25,10.61-2.29,20.52-10.14,26.55-20.85s6.64-23.76,1.57-35.55l-19.11-44.48c-.88-2.04-2.29-3.57-1.9-5.68,1.61,1.17,2.41,3.09,3.37,5.12l7.9,16.65,7.27,18.22c7.24,18.17,11.99,27.78,1.79,47.24-8.33,15.88-24.09,24.06-42.53,21.72-8.42-1.07-15.95-5-23.29-9.35-2.46-1.46-2.05-2.42-3.63-4.84l-5.71-8.77c-1.55-2.38-2.61-4.72-1.9-7.48Z"/>
    <path class="cls-2" d="M344.36,414.82l-13.47-31.04c1.44-.2,2.15.58,2.69,1.95l3.11,7.9,8.63,20.29c.28.66-.09,1.17-.96.9Z"/>
    <path class="cls-2" d="M289.22,495.12c-7.28-5.69-6.89-9.18-7.58-16.73,3.53,4.96,5.66,10.97,7.58,16.73Z"/>
    <g>
      <path class="cls-3" d="M330.47,381.11c-.17.89.06,1.85.42,2.68l13.47,31.04c.31.72.86,1.68,1.49,2.13-.39,2.11,1.02,3.63,1.9,5.68l19.11,44.48c5.07,11.8,4.59,24.61-1.57,35.55s-15.94,18.56-26.55,20.85c-12.91,2.79-25.9.03-35.12-8.25-5.71-5.13-10.26-10.44-12.82-17.48-.4-1.11-1.02-1.89-1.7-2.31-.05-.08-.07-.24.12-.36-1.92-5.76-4.05-11.77-7.58-16.73-.02-.19,0-.4.34-.52l-23.53-54.34-18.52-43.5c-8.64-20.29-1.26-43.54,17.98-53.68,18.49-9.75,42.76-4.34,53.97,14.83l16.31,36.35c.67,1.5.55,3.14,2.29,3.57ZM251.77,337.25l-.98.81c-11.3,9.3-12.2,31.73-3.76,45.94.04.18.05.51.12.68l21.3,49.86,6.36-3.5c.2.1.59.26.78.16l5.97-3.03c2.47-1.25,4.71-1.8,7.19-2.91l10.5-4.72-33.67-19.72,1.63-22.51c.51-7.1.82-15.3,1.83-21.04.59-3.38-.72-7.03.99-10.76l42.57,33.17-7.77,38.54,29.87-13.36-23.45-54.98c-2.58-6.53-6.55-11.86-11.97-15.59-.25-.17-.71-.48-1.04-.55-13.98-10.64-34.47-9.67-46.45,3.52ZM286.85,389.24l-14.78-33.08-3.13,41.42,17.91-8.34ZM286.44,379.02l-.15.96,3.6,7.87,18.01-7.57c-2.55-2.77-4.8-4.17-7.49-5.88l-.97-.61-23.49-18.1,10.49,23.34ZM301.83,415.05l7.09-31.71-17.83,7.64,10.73,24.07ZM298.58,416.14l-10.39-23.79-17.53,7.82,27.91,15.97ZM364.61,478.95c-.36-6.77-3-11.98-5.46-17.69l-22.53-52.3-66.44,29.43,23.97,55.82c7.44,17.33,23.48,28.85,41.92,24.96,18.43-3.89,31.05-20.51,28.53-40.22Z"/>
      <path class="cls-1" d="M298.21,333.73c.34.08.8.38,1.04.55.1,1.93,3.18,3.6,3.7,5.36,1.38,4.64,4.15,7.1,6.57,10.99,2.82,4.52,3.61,11.25,5.21,16.28-4.31,2.79-.96,5.23-3.16,7.77-.87,1-2.53,1.2-3.05.24l-1.44-2.66c-4.25-2.53-8.57-4.59-11.4-8.89l-1.16-6.96c-2.29-.16-3.95.7-6.32,1.35-1.82-2.76-4.62-3.13-6.97-4.39-3.46-1.85-3.77-5.94-4.48-9.38-.51-2.44-4.86-5.16-6.87-4.44-3.05,1.08-1.72,14.56-2.76,23.29l-1.06,8.91-.77,10.14-1.91,13.74c-.36,2.59-.39,5.95,3.13,7.26,5.44,2.03,9.39,5.97,14.15,9.21,4.42,3.01,10.82,2.9,14.69,8.33l-17.04,7.98c-1.63.76-3.01.98-2.73,2.8-.2.1-.58-.07-.78-.16-2.84.75-5.72-.01-6.89-3.4-2.28-6.57-9.71-13.12-8.77-23.02-3.18-3.66-5.13-7.97-6.52-12.65-2.9-3.3-2.88-6.9-5.47-7.29-.07-.17-.08-.5-.12-.68l-4.18-20.32c.16-4.32.82-9.29,2.42-13.07l3.53-8.36c.54-1.27,2.38-2.79,1.99-4.2l.98-.81c.91.02,2.4-.53,3.02-1.29,3.09-3.81,7.52-1.06,14.84-1.77.78-.09,2.16-2.47,2.77-2.18l2.58,1.27c3.53.48,6.98-2.11,10.64-2.41l12.59,2.85Z"/>
      <path class="cls-5" d="M364.61,478.95c2.51,19.71-10.1,36.32-28.53,40.22-18.44,3.9-34.48-7.63-41.92-24.96l-23.97-55.82,66.44-29.43,22.53,52.3c2.46,5.71,5.1,10.91,5.46,17.69ZM336.76,508.65c-10.61.71-22.16-4.91-26.84-15.54l-25.6-58.15c-1.2-.39-4.2,1.12-4.4,2.48l9.39,22.69c-2.97.46-1.99-3.19-4.73-5.83-.9-.87-3.1-.71-3.38.73-1.04,5.16,1.56,9.62,3.75,14.03,1.22,2.44,2.56,5.51,5.82,4.67l-1.48-12.89,13.08,29.94c6.78,15.79,20.87,23.74,37.41,18.86-.53.61-2,1.36-2.55,2.71,3.55,6.35,13.66-.58,15.48-3.86,1.62-2.91,2.63-4.67,4.93-7.18,8.61-9.42,7.34-24.89,1.73-36.44l-9.26-19.07-3.24-7.42c-2.26-5.19-3.93-9.77-6.44-14.76l-4.01-7.98c-.34-.67-.34-2.47-1.46-2.69-.83-.16-1.75-.36-2.78.15l-12.07,5.93c-2.78,1.37-5.6.71-7.66,3.68-2.84,4.12-10.77.96-13.37,6.43l-7.08,7.38c-1.35,2.75.45,6.32.34,8.8-.24,5.26,2.1,9.26,4.5,13.64l4.78,8.75,3.98,12.52c1.61,5.06,4.38,9.01,8.88,12.26,3.64,2.62,1.77,12.73,17.51,14.22,2.05.19,3.91.29,4.79,1.96ZM299.59,487.18c-1.3-3.04-3.71-5.02-7.05-4.69.65,7.48,4.91,17.23,7.11,17.04,3.78-.32,2.66-5.99-.06-12.35ZM327.45,515.29c.23-.49,0-2.26-.62-2.5l-14.99-5.79c-1.37-.53-2.7,2.02-2.67,3.07s-.19,2.96,1.36,3.51l6.01,2.13c5.01,1.78,9.68,2.16,10.9-.43Z"/>
      <polygon class="cls-5" points="301.83 415.05 291.1 390.98 308.93 383.34 301.83 415.05"/>
      <polygon class="cls-5" points="298.58 416.14 270.67 400.17 288.2 392.34 298.58 416.14"/>
      <path class="cls-5" d="M298.21,333.73l-12.59-2.85c-3.66.3-7.12,2.89-10.64,2.41l-2.58-1.27c-.61-.3-1.98,2.08-2.77,2.18-7.32.7-11.75-2.04-14.84,1.77-.62.77-2.11,1.32-3.02,1.29,11.97-13.19,32.47-14.16,46.45-3.52Z"/>
      <path class="cls-1" d="M299.44,373.78l.97.61c.11,1.28,1.32,3.58.25,5.35-2.15,3.54-7.22,6.31-11.16,5.63-.72-1.89-1.03-4.91-3.2-5.4l.15-.96c.46-3.01-2.18-6.28.48-9.02,1.38-1.43,3.74-1.37,5.47-.36l7.06,4.14Z"/>
      <path class="cls-5" d="M286.85,389.24l-17.91,8.34,3.13-41.42,14.78,33.08ZM283.68,388.54c.9-2.78-1.82-11.02-6.75-10.19-6.17,1.03-5.88,6.7-5.08,15.36,4.38-.18,11.36-3.7,11.83-5.16Z"/>
      <path class="cls-5" d="M275.58,431.21c-.28-1.82,1.1-2.03,2.73-2.8l17.04-7.98c-3.87-5.43-10.26-5.32-14.69-8.33-4.76-3.24-8.71-7.18-14.15-9.21-3.51-1.31-3.49-4.67-3.13-7.26l1.91-13.74.77-10.14,1.06-8.91c1.04-8.73-.29-22.21,2.76-23.29,2.01-.71,6.36,2,6.87,4.44.72,3.44,1.03,7.53,4.48,9.38,2.34,1.26,5.15,1.63,6.97,4.39,2.37-.65,4.03-1.51,6.32-1.35l1.16,6.96c2.83,4.3,7.14,6.37,11.4,8.89l1.44,2.66c.52.96,2.18.76,3.05-.24,2.2-2.53-1.15-4.98,3.16-7.77-1.6-5.03-2.39-11.76-5.21-16.28-2.42-3.88-5.19-6.34-6.57-10.99-.52-1.77-3.6-3.44-3.7-5.36,5.43,3.73,9.39,9.06,11.97,15.59l23.45,54.98-29.87,13.36,7.77-38.54-42.57-33.17c-1.71,3.72-.4,7.38-.99,10.76-1,5.74-1.31,13.95-1.83,21.04l-1.63,22.51,33.67,19.72-10.5,4.72c-2.48,1.12-4.73,1.66-7.19,2.91l-5.97,3.03ZM326.83,401.37c-1.36-1.23-2.4-1.79-2.6-3.07-.14-.91.08-2.37.77-3.35,2.57-3.69.4-6.87-.87-10.67-1.02-3.06-2.47-7.24-6.72-6.5.65,3.11-1.67,5.55-3.27,8.11-3.39,5.44-3.53,13.05-2.94,19.25,7.67.49,9.79,5.15,14.8,1.19,1.25-.99,2.36-3.57.82-4.96Z"/>
      <path class="cls-5" d="M299.44,373.78l-7.06-4.14c-1.72-1.01-4.09-1.07-5.47.36-2.65,2.74-.02,6.01-.48,9.02l-10.49-23.34,23.49,18.1Z"/>
      <path class="cls-5" d="M247.02,384c-8.44-14.21-7.53-36.65,3.76-45.94.39,1.41-1.46,2.93-1.99,4.2l-3.53,8.36c-1.6,3.78-2.26,8.75-2.42,13.07l4.18,20.32Z"/>
      <path class="cls-5" d="M274.79,431.04l-6.36,3.5-21.3-49.86c2.59.4,2.57,3.99,5.47,7.29,1.39,4.68,3.34,8.99,6.52,12.65-.94,9.9,6.5,16.45,8.77,23.02,1.17,3.38,4.05,4.14,6.89,3.4Z"/>
      <path class="cls-5" d="M286.29,379.98c2.17.48,2.48,3.51,3.2,5.4,3.94.68,9.02-2.09,11.16-5.63,1.08-1.77-.14-4.08-.25-5.35,2.69,1.71,4.95,3.11,7.49,5.88l-18.01,7.57-3.6-7.87Z"/>
      <path class="cls-1" d="M339.77,509.62c.61-1.85-1.98-1.03-3.01-.96-.88-1.68-2.73-1.77-4.79-1.96-15.74-1.49-13.87-11.59-17.51-14.22-4.51-3.25-7.27-7.2-8.88-12.26l-3.98-12.52-4.78-8.75c-2.4-4.39-4.74-8.38-4.5-13.64.11-2.48-1.69-6.05-.34-8.8l7.08-7.38c2.6-5.47,10.53-2.3,13.37-6.43,2.05-2.98,4.87-2.31,7.66-3.68l12.07-5.93c1.04-.51,1.95-.32,2.78-.15,1.12.22,1.12,2.02,1.46,2.69l4.01,7.98c2.51,4.99,4.18,9.57,6.44,14.76l3.24,7.42,9.26,19.07c5.61,11.55,6.89,27.03-1.73,36.44-2.3,2.51-3.31,4.27-4.93,7.18-1.82,3.27-11.93,10.21-15.48,3.86.55-1.35,2.03-2.09,2.55-2.71Z"/>
      <path class="cls-3" d="M336.76,508.65c1.02-.07,3.62-.89,3.01.96-16.54,4.88-30.63-3.06-37.41-18.86l-13.08-29.94c-.02-.17.11-.48.02-.69l-9.39-22.69c.2-1.36,3.2-2.87,4.4-2.48l25.6,58.15c4.68,10.63,16.23,16.25,26.84,15.54Z"/>
      <path class="cls-1" d="M289.31,460.13c.09.21-.04.53-.02.69l1.48,12.89c-3.26.84-4.61-2.23-5.82-4.67-2.19-4.4-4.79-8.87-3.75-14.03.29-1.43,2.48-1.6,3.38-.73,2.74,2.64,1.75,6.29,4.73,5.83Z"/>
      <path class="cls-1" d="M326.83,401.37c1.54,1.4.44,3.98-.82,4.96-5.02,3.96-7.14-.7-14.8-1.19-.58-6.2-.45-13.81,2.94-19.25,1.6-2.56,3.91-5.01,3.27-8.11,4.25-.75,5.69,3.44,6.72,6.5,1.27,3.8,3.44,6.98.87,10.67-.69.99-.91,2.45-.77,3.35.19,1.28,1.24,1.84,2.6,3.07Z"/>
      <path class="cls-1" d="M283.68,388.54c-.47,1.46-7.45,4.98-11.83,5.16-.8-8.66-1.09-14.33,5.08-15.36,4.93-.82,7.65,7.41,6.75,10.19Z"/>
      <path class="cls-1" d="M299.59,487.18c2.72,6.36,3.84,12.03.06,12.35-2.2.19-6.46-9.56-7.11-17.04,3.34-.33,5.75,1.66,7.05,4.69Z"/>
      <path class="cls-1" d="M327.45,515.29c-1.22,2.59-5.9,2.21-10.9.43l-6.01-2.13c-1.55-.55-1.34-2.45-1.36-3.51s1.3-3.6,2.67-3.07l14.99,5.79c.61.23.85,2,.62,2.5Z"/>
    </g>
    <g>
      <g>
        <path class="cls-3" d="M250.23,462.36l2.68,1.15c14.84,6.39,24.15,19.52,25.13,36.13.65,10.98-3.79,21.44-9.98,30.58l-18.45,27.23-54.27,78.53c-9.92,14.35-29.18,18.02-44.9,12.36-14.97-5.39-25.65-19.34-26.4-35.84-.51-11.21,2.57-19.93,8.78-29.07l71.8-105.57c10.31-15.15,28.31-20.85,45.61-15.52ZM253.41,487.54c-.08-.33-.11-.77-.43-1.15-6.21-7.27-19.17-7.54-25.45.43-9.41,11.95,2.57,26.02-7.02,23.5-.93-5.05-1.69-10.71-1.04-16.19,1.33-11.12,11.35-18.44,22.33-17.69,11.9.81,20.15,10.26,20.01,21.56s-8.46,20.32-20.48,21.04l-16.17.97c-6.34.38-12.5,1.59-17.76,5.12-10.66,7.17-8.57,20.21-3.44,32.1l27.02,18.51,14.75-21.54c.14-.21.23-.73.64-.84l18.96-27.64c5.33-7.77,8.35-16.25,7.91-25.73-.61-12.97-7.63-24.24-18.23-30.15-11.74-6.55-26.01-6.33-36.97,1.2-5.74,3.94-9.45,9.41-13.29,15.1l-33.32,49.31,25.79,17.47c-.95-5.71-2.39-10.17-1.95-15.22.98-11.3,9.46-18.69,20.32-20.93,16.56-3.4,34.17,1.53,40.06-11.45,2.8-6.17,2.1-13.47-2.25-17.77ZM144.41,574.85c-.13.19-.16.58-.17.84-4.53,6.07-9.47,12.14-12.52,19.39-7.36,17.47-1.49,36.44,14.36,46.03,15.54,9.41,35.79,5.14,47.3-9.92l35.25-51.82-23.28-15.72c2.24,9.16,1.26,17.53-4.92,23.73-6.26,6.23-14.57,8.13-23.25,8.83l-9.23.75c-5.35.43-11.12.34-15.8,3.31-7.35,4.68-8.97,15.08-4.81,22.17,4.54,7.74,14.17,10.3,22.62,6.38,6.22-2.89,9.23-9.46,8.72-16.5l-1.05-8.72,1.58-2.22c1.17-.39,1.94-.05,2.49.38,1.39,1.1,4.91,18.24-4.86,27.63-8.42,8.09-21.41,7.21-29.74.03-.62-.54-1.07-.87-1.77-1.37-6.02-8.63-6.91-21.02,1.11-29.08,3.6-3.61,9.23-5.99,14.34-6.39l23.78-1.87c6.71-.53,12.71-4.63,15.67-10.83,2.39-6.54,1.71-13.56-.53-20.1l-30.8-20.85-24.48,35.9Z"/>
        <path class="cls-1" d="M246.38,553.36c-.41.1-.5.62-.64.84-4.74-.12-6.08,5.82-11.47,10.65-1.46,1.31-2.18,3.71-3.62,4.23-2.63.95-4.98,1.12-7.17-.43l-11.66-8.25c-3.38-2.39-4.9-5.63-6.05-9.57-.34-1.18-1.68-2.34-1.53-4.01.5-5.28.15-10.23-.94-15.47,2.74-5.34,11.84-9.2,16.58-9.13l16.05.24c3.08.05,7.12,1.8,10.12.93,2.77-.8,4.94-3.22,8.09-3.58,2.74-.31,3.04-4.02,3.98-5.72l6.55-11.81c.84-1.51,2.47-.74,3.21-.31,1.33.77.47,2.81.76,3.89,2.05,7.73-.22,16.07-7.09,20.59-4.29,2.82-7.17,11.2-9.58,16.08-1.82,3.69-5.9,6.41-5.59,10.82Z"/>
        <path class="cls-1" d="M144.24,575.69c.01-.25.04-.65.17-.84,5.38-1.32,4.5-9.01,14.66-11.64.95-2.06,2.66-4.68,5-6.01-.29-4.44.33-12.31,5.16-14.35,5.9.42,11.06,6.24,14.87,10.33l6.73,2.71c2,.8,3.72,2.82,6.1,3.12,3.11,5.73,4.32,13.09,1.86,19.27-1.03,2.58-3.49,3.47-5.83,2.33l-3.34,4.66c-3.18-1.65-5.97,1.66-8.04,1.85-3.26.3-4.69.21-7.2,2.66-1.82,1.78-6.77.15-8.94.7-5.28,1.35-8.91.92-13.87.24-2.54-.35-11.04,6.71-10.67,5.8-.25.61.96,2.38.77,3.17l-2.85,11.7c-.38,1.54-2.12,2.82-3.17,2.8-6.66-.13-6.1-14.13-1.19-18.84,2.28-2.18,3.87-2.74,5.56-5.88.86-1.6,3.64-.99,4.21-13.77Z"/>
        <path class="cls-1" d="M179.21,601.4l-1.58,2.22-1.22,12.69c-1.97,3.24-4.28,6.75-6.93,9.53-5.71,6-17.07,3.13-20.9-3.88-2.04-3.75-2.47-8.95-.68-12.47l7.5-5.85c2.62-4.58,5.73-4.71,10.9-5.16l9.91-.85,15.18-.34c11.01-.25,14.89-13.86,16.9-25.77,7.35-1.6,16.72,6.86,16.26,8.96-2.1,9.64-14.25,19.17-14.42,19.48l-6.45,11.73-2.8,1.3c-.48.22.6,2.22.49,3.04-.46,3.3-3.73,5.35-5.11,8.1-1.53,3.08-3.59,5.45-6.93,6.52-1.48-1.9-2.87-2.95-4.69-4.09l-.52-20.19c-.07-2.71-1.24-5.24-3.3-6.76-.6-.44-1.53.2-1.43.6.07.26.12.77-.17,1.19Z"/>
        <path class="cls-5" d="M246.38,553.36c-.31-4.41,3.77-7.13,5.59-10.82,2.4-4.88,5.28-13.26,9.58-16.08,6.88-4.52,9.14-12.86,7.09-20.59-.29-1.08.58-3.12-.76-3.89-.74-.43-2.38-1.19-3.21.31l-6.55,11.81c-.94,1.69-1.24,5.41-3.98,5.72-3.15.35-5.32,2.77-8.09,3.58-3,.87-7.04-.89-10.12-.93l-16.05-.24c-4.74-.07-13.84,3.79-16.58,9.13,1.09,5.23,1.43,10.18.94,15.47-.16,1.67,1.18,2.83,1.53,4.01,1.15,3.94,2.67,7.18,6.05,9.57l11.66,8.25c2.19,1.55,4.54,1.39,7.17.43,1.44-.52,2.16-2.92,3.62-4.23,5.39-4.83,6.73-10.77,11.47-10.65l-14.75,21.54-27.02-18.51c-5.13-11.9-7.22-24.93,3.44-32.1,5.26-3.54,11.42-4.75,17.76-5.12l16.17-.97c12.02-.72,20.33-9.6,20.48-21.04s-8.11-20.75-20.01-21.56c-10.98-.75-21,6.57-22.33,17.69-.66,5.48.11,11.14,1.04,16.19,9.59,2.53-2.39-11.55,7.02-23.5,6.28-7.97,19.24-7.69,25.45-.43-1.78.69-3.27-.5-4.69-1.47-5.74-3.92-11.56-2.34-15.86,2.38-7.23-.34-9.1,14.25-5.18,22.37,2.51,5.19,14.61,3.63,22.51-.63.99-1.85,3.42-4.27,4.55-6.12,2.98-4.87.24-10.7-.9-15.38,4.34,4.3,5.05,11.6,2.25,17.77-5.89,12.98-23.5,8.05-40.06,11.45-10.86,2.23-19.34,9.63-20.32,20.93-.44,5.05.99,9.51,1.95,15.22l-25.79-17.47,33.32-49.31c3.85-5.69,7.55-11.15,13.29-15.1,10.96-7.53,25.24-7.75,36.97-1.2,10.6,5.92,17.63,17.19,18.23,30.15.44,9.48-2.57,17.95-7.91,25.73l-18.96,27.64ZM246.82,474.71c2.12-.15,3.34-3.74,3.01-4.86-6.92-2.79-15.51-4.71-19.6-.9-1.27,1.18-.03,3.98,1,4.99,1.14,1.12,2.72,1.66,4.91,1.5l10.69-.74ZM183.82,542.25c2.29,1.86,4.54,2.3,6.76,1.18,1.89-.95,3.29-3.09,2.91-5.78l-.74-5.2c2.44-1.58,3.25-3.7,1.63-6.54,4.1.35,6.01-1.97,8.25-4.68l9.27-5.31c1.53-.87,1.79-3.58,4.22-4.48-.79-9.62,2.14-18.49,5.46-27.52l1.19-6.54c-2.98-2.88-6.8-2.02-9.53.71-8.55,8.55-3.1,15.23-5.21,17.17-1.64,1.5-6.34-1.23-7.75,2.76-1.33,3.75-8.4,8.15-11.41,14.61.75,1.51,1.34,3.87.98,5.13-.32,1.12-2.21,1.75-3.16,2.94-5.52,6.88-10.44,8.24-12.45,13.74l9.6,7.81Z"/>
        <path class="cls-1" d="M252.97,486.39c.33.38.35.83.43,1.15,1.15,4.68,3.89,10.51.9,15.38-1.13,1.85-3.56,4.27-4.55,6.12-7.91,4.25-20.01,5.82-22.51.63-3.92-8.12-2.05-22.71,5.18-22.37,4.3-4.72,10.12-6.3,15.86-2.38,1.42.97,2.91,2.16,4.69,1.47Z"/>
        <path class="cls-5" d="M145.32,628.07l-6.63-4.73c-1.59-.61-2.98,2.28-3.18,3.46-.7,4.2,5.11,8.72,8.78,9.89,1.4.44,3.32-1.23,3.61-2.26.45-1.56-.17-3.56-.81-4.98,8.33,7.17,21.32,8.06,29.74-.03,9.77-9.39,6.25-26.53,4.86-27.63-.55-.43-1.32-.77-2.49-.38.29-.41.24-.92.17-1.19-.1-.39.83-1.04,1.43-.6,2.06,1.52,3.23,4.05,3.3,6.76l.52,20.19c1.82,1.14,3.21,2.19,4.69,4.09,3.34-1.07,5.4-3.44,6.93-6.52,1.37-2.76,4.65-4.81,5.11-8.1.11-.82-.96-2.82-.49-3.04l2.8-1.3,6.45-11.73c.17-.31,12.32-9.84,14.42-19.48.46-2.1-8.92-10.56-16.26-8.96-2,11.91-5.89,25.52-16.9,25.77l-15.18.34-9.91.85c-5.17.44-8.29.58-10.9,5.16l-7.5,5.85c-1.79,3.53-1.36,8.73.68,12.47,3.82,7.02,15.19,9.88,20.9,3.88,2.65-2.78,4.96-6.29,6.93-9.53l1.22-12.69,1.05,8.72c.51,7.04-2.5,13.6-8.72,16.5-8.45,3.93-18.09,1.36-22.62-6.38-4.15-7.09-2.54-17.5,4.81-22.17,4.67-2.97,10.45-2.88,15.8-3.31l9.23-.75c8.68-.71,16.99-2.6,23.25-8.83,6.18-6.2,7.17-14.57,4.92-23.73l23.28,15.72-35.25,51.82c-11.5,15.06-31.76,19.33-47.3,9.92-15.85-9.59-21.72-28.57-14.36-46.03,3.05-7.25,7.99-13.32,12.52-19.39-.57,12.78-3.35,12.17-4.21,13.77-1.69,3.14-3.28,3.69-5.56,5.88-4.91,4.71-5.47,18.71,1.19,18.84,1.05.02,2.8-1.26,3.17-2.8l2.85-11.7c.19-.79-1.01-2.56-.77-3.17-.37.91,8.13-6.15,10.67-5.8,4.96.69,8.6,1.11,13.87-.24,2.17-.55,7.11,1.08,8.94-.7,2.51-2.44,3.94-2.36,7.2-2.66,2.07-.19,4.86-3.5,8.04-1.85l3.34-4.66c2.34,1.14,4.8.25,5.83-2.33,2.47-6.18,1.26-13.54-1.86-19.27-2.38-.31-4.1-2.32-6.1-3.12l-6.73-2.71c-3.81-4.09-8.98-9.91-14.87-10.33-4.83,2.04-5.45,9.92-5.16,14.35-2.35,1.33-4.05,3.95-5,6.01-10.16,2.62-9.28,10.32-14.66,11.64l24.48-35.9,30.8,20.85c2.24,6.53,2.93,13.56.53,20.1-2.95,6.2-8.95,10.3-15.67,10.83l-23.78,1.87c-5.11.4-10.75,2.78-14.34,6.39-8.03,8.06-7.13,20.45-1.11,29.08ZM162.51,644.01c5.24,1.23,10.5-.97,15-2.93-1.29-4.05-4.94-6.14-8.23-5.68l-11.41,1.6c.3,2.47,2.33,6.47,4.64,7.01Z"/>
        <path class="cls-1" d="M145.32,628.07c.7.5,1.15.84,1.77,1.37.64,1.43,1.26,3.43.81,4.98-.3,1.03-2.22,2.7-3.61,2.26-3.67-1.17-9.48-5.69-8.78-9.89.2-1.18,1.59-4.07,3.18-3.46l6.63,4.73Z"/>
        <path class="cls-1" d="M183.82,542.25l-9.6-7.81c2.01-5.5,6.93-6.86,12.45-13.74.96-1.19,2.84-1.82,3.16-2.94.36-1.26-.24-3.63-.98-5.13,3.01-6.46,10.07-10.86,11.41-14.61,1.42-3.98,6.11-1.25,7.75-2.76,2.12-1.94-3.34-8.62,5.21-17.17,2.74-2.74,6.55-3.59,9.53-.71l-1.19,6.54c-3.32,9.03-6.24,17.9-5.46,27.52-2.44.9-2.69,3.6-4.22,4.48l-9.27,5.31c-2.23,2.71-4.14,5.04-8.25,4.68,1.62,2.84.81,4.96-1.63,6.54l.74,5.2c.39,2.69-1.02,4.83-2.91,5.78-2.22,1.12-4.47.68-6.76-1.18Z"/>
        <path class="cls-1" d="M246.82,474.71l-10.69.74c-2.19.15-3.77-.38-4.91-1.5-1.03-1.01-2.26-3.8-1-4.99,4.08-3.81,12.68-1.89,19.6.9.34,1.12-.88,4.71-3.01,4.86Z"/>
        <path class="cls-1" d="M162.51,644.01c-2.31-.54-4.34-4.54-4.64-7.01l11.41-1.6c3.3-.46,6.94,1.63,8.23,5.68-4.51,1.96-9.76,4.17-15,2.93Z"/>
      </g>
      <g>
        <path class="cls-3" d="M471.57,601.1c-8.22,15.27-22.86,21.63-39.5,21.58l-132.41-.43c-22.98-3.08-38.46-21.62-36.92-44.65,1.51-22.55,21.23-38.82,43.7-37.74l30.1-.34,26.51.24,34.49-.13,33.74.14c17.99.07,34.66,8.36,42.06,25.07,5.27,11.89,4.48,24.67-1.76,36.27ZM361.92,574.36c-.33.14-.73.26-.94.54l-2.82,3.67-.86.88-20.96,25.14c-2.59-2.15-4.78-5.04-6.75-7.83l-22.69-32.23-17.09,20.43c-.18.21-.27.69-.65.82l-6.21,7.77c-.36-.25-1.22-.41-1.66-.36-.61-.41-1.48-.97-1.75-1.59-.35-.8.16-1.77.76-2.59l3.59-4.89.87-.72,22.5-26.22,28.83,40.49,15.36-18.87c.17-.21.3-.71.62-.9,1.28-.92,1.99-2.41,2.97-3.63l.74-.93,12.32-15.1c1.4-3.86.18-8.96.31-13.57l-60.97-.12c-15.42-.03-29.32,6.09-36.01,20.09-5.59,11.71-5.26,24.98,1.95,36.28,6.08,9.52,17.31,16.56,29.88,16.64l65.31.41.02-52.41c-2.92,2.94-5.06,5.61-6.66,8.78ZM375.93,617.78l1.59.07,45.55.03h3.65s13.44-.31,13.44-.31c8.02-.18,15.34-3.93,20.37-9.69.55-.63,1.24-.89,1.68-1.88,12.52-13.19,13.35-34.92.66-48.85-6.68-7.34-16.18-12.16-26.05-12.17l-53.83-.03c-3.45,0-6.62-1-10.25-.13l.02,72.74c1.54.45,2.37.2,3.17.23Z"/>
        <path class="cls-1" d="M462.21,605.99c-.44.99-1.13,1.25-1.68,1.88l-12.29,4.34c-14.13,9.61-21.37.74-21.53,5.65h-3.65c-.06-.6-.77-.78-1.81-.9l-7.36-.8-23.56.12c-3.42.02-6.56,1.17-10.08-.45-.65-.3-2.36.22-2.67.67-.2.3-.17.93-.06,1.34l-1.59-.07-1.57-3.05c-.6-1.17-.14-2.28.34-2.92.6-.8,2.44-1.69,3.61-1.25,2.89,1.09,4.84.18,7.49.17l54.46-.32,8.2-1,3.9-4.96c1.98-2.52,5.44-3.71,6.23-6.54.19-.09.23-.43.07-.67l2.86-3.7c3.43-3,3.65-6.63,2.88-10.94-.14-.76.95-2.72.57-3.38s-2.89-.83-3.63-.38c-4.16,2.5-3.54,7.81-5.56,11.85-5.29,10.58-20.43,11.53-32.85,11.48l-34.2-.14c-3.38-.01-7.61,1.63-10.87-.14-2.81-1.53-3.24-6.48-3.18-9.45l.49-22.56.02-8.08c.01-4.72-1.47-9.68.05-14.53,6.41-2.13,13.12-.75,19.68-.74h20.66s21.25.27,21.25.27c2.95.04,7.27.7,9.79,1.88l9.47,4.44c4.12,1.93,7.34,7.36,9.1,11.52l2.77,6.56c2.79,6.6,2.53,16.36-.12,22.25l-5.64,12.54Z"/>
        <path class="cls-1" d="M355.77,573.35l-.74.93c-1.8.22-2.62,1.97-2.97,3.63-.32.18-.45.69-.62.9-1.71-.25-2.02,1.15-3.3,2.46l-3.94,4.06-4.35,5.99c-1.12,1.54-3.73,4.92-5.47,2.29l-5.79-8.74c-3.62-2.97-3.11-8.33-4.95-11.31-5.92-5.18-13.35-11.8-14-19.1-7.58,3.5-11.24,9.55-16.17,14.89-2.77,3.01-5.49,4.88-6.37,9.28l-2.34,4.78-.87.72-6.37,2.99c-1.72.81-.88,3.6-.09,4.63,1.01,1.31,2.36,1.6,3.85,1.44.44-.05,1.31.11,1.66.36,1.99,1.4,4.96-3.26,6.21-7.77.38-.13.48-.61.65-.82,5.54-3.29,10.41-7.98,13.26-14.15.78-1.67,2.25-2.53,3.81-2.31.96.13,2.07,1.03,2.88,2.26l5.38,8.25c1.14,1.75.84,3.98,2.92,5.45,5.45,3.83,7.51,9.86,11.52,12.31,1.97,2.79,4.16,5.68,6.75,7.83,7.11-1.39,5.47-9.52,13.26-11.91,1.28-5.24,7.95-8.7,7.7-13.23l.86-.88c1.8-.29,3.09-1.83,2.82-3.67.21-.28.61-.4.94-.54,1.47-.62,2.42-2.09,4.91-2.36,2.18,10.5-1.35,21.09-.5,30.52.41,4.51,2.21,8.54.61,13.5l-66.87.05c-2.66-3.77-7.08-2.24-10.53-4.07l-7.85-4.18-5.12-5.61c-2.96-2.23-4.52-5.12-3.7-9.01-5.96-10.23-4.41-22.04,1.58-32,4.74.05,6.04-3.08,8.18-6.39,6.05-7.41,16.23-10.05,25.39-7.54,3.38.92,5.04-.96,7.72-.97l49.67-.17c1.76,3.76,1.79,9.27-.71,12.39s-3.54,5.82-5.49,9.37c-.94,1.71-3.98,3.15-3.46,5.48Z"/>
        <path class="cls-5" d="M462.21,605.99l5.64-12.54c2.65-5.9,2.9-15.66.12-22.25l-2.77-6.56c-1.76-4.16-4.98-9.59-9.1-11.52l-9.47-4.44c-2.51-1.18-6.84-1.84-9.79-1.88l-21.25-.27h-20.66c-6.57,0-13.27-1.38-19.68.74-1.52,4.85-.04,9.81-.05,14.53l-.02,8.08-.49,22.56c-.06,2.97.36,7.92,3.18,9.45,3.26,1.77,7.49.13,10.87.14l34.2.14c12.42.05,27.56-.9,32.85-11.48,2.02-4.05,1.4-9.35,5.56-11.85.74-.45,3.25-.27,3.63.38s-.7,2.62-.57,3.38c.77,4.31.55,7.94-2.88,10.94l-2.86,3.7c.45-5.02,4.7-10.98,2.66-16.29-2.51,11.77-11.53,22.65-23.89,22.74l-62.86.44c-.83,1.18-.75,3.28-.11,5.38l63.09-.03c6.72,0,12.01-4.55,16.87-8.52,1.39-1.14,1.82-3.07,4.16-3.06-.79,2.83-4.25,4.03-6.23,6.54l-3.9,4.96-8.2,1-54.46.32c-2.65.02-4.6.92-7.49-.17-1.17-.44-3.01.45-3.61,1.25-.48.64-.94,1.75-.34,2.92l1.57,3.05c-.8-.03-1.63.22-3.17-.23l-.02-72.74c3.63-.87,6.81.12,10.25.13l53.83.03c9.87,0,19.37,4.83,26.05,12.17,12.69,13.93,11.86,35.66-.66,48.85Z"/>
        <path class="cls-5" d="M355.77,573.35c-.52-2.32,2.52-3.77,3.46-5.48,1.95-3.55,3.04-6.3,5.49-9.37s2.47-8.64.71-12.39l-49.67.17c-2.68,0-4.34,1.89-7.72.97-9.16-2.5-19.33.13-25.39,7.54-2.14,3.3-3.44,6.44-8.18,6.39-5.99,9.97-7.54,21.78-1.58,32-.83,3.89.74,6.78,3.7,9.01l5.12,5.61,7.85,4.18c3.44,1.83,7.86.3,10.53,4.07l66.87-.05c1.59-4.96-.21-8.99-.61-13.5-.85-9.43,2.67-20.03.5-30.52-2.49.27-3.44,1.74-4.91,2.36,1.6-3.17,3.74-5.84,6.66-8.78l-.02,52.41-65.31-.41c-12.58-.08-23.8-7.12-29.88-16.64-7.21-11.29-7.54-24.57-1.95-36.28,6.69-14.01,20.59-20.12,36.01-20.09l60.97.12c-.13,4.61,1.09,9.71-.31,13.57l-12.32,15.1Z"/>
        <path class="cls-5" d="M351.44,578.8l-15.36,18.87-28.83-40.49-22.5,26.22,2.34-4.78c.88-4.39,3.6-6.27,6.37-9.28,4.93-5.34,8.59-11.39,16.17-14.89.65,7.31,8.07,13.92,14,19.1,1.84,2.98,1.33,8.34,4.95,11.31l5.79,8.74c1.74,2.63,4.36-.75,5.47-2.29l4.35-5.99,3.94-4.06c1.27-1.31,1.59-2.72,3.3-2.46Z"/>
        <path class="cls-5" d="M423.06,617.87l-45.55-.03c-.11-.41-.14-1.04.06-1.34.31-.45,2.02-.97,2.67-.67,3.52,1.63,6.66.47,10.08.45l23.56-.12,7.36.8c1.05.11,1.75.3,1.81.91Z"/>
        <path class="cls-5" d="M460.52,607.87c-5.03,5.76-12.35,9.51-20.37,9.69l-13.44.3c.16-4.9,7.4,3.97,21.53-5.65l12.29-4.34Z"/>
        <path class="cls-5" d="M329.59,596.76c-4.01-2.45-6.07-8.48-11.52-12.31-2.08-1.46-1.78-3.7-2.92-5.45l-5.38-8.25c-.81-1.24-1.91-2.13-2.88-2.26-1.56-.21-3.04.64-3.81,2.31-2.86,6.17-7.72,10.86-13.26,14.15l17.09-20.43,22.69,32.23Z"/>
        <path class="cls-5" d="M281.29,593.18c-1.49.16-2.85-.13-3.85-1.44-.79-1.03-1.63-3.83.09-4.63l6.37-2.99-3.59,4.89c-.6.82-1.11,1.79-.76,2.59.27.62,1.14,1.18,1.75,1.59Z"/>
        <path class="cls-5" d="M336.34,604.59l20.96-25.14c.25,4.53-6.43,8-7.7,13.23-7.79,2.39-6.15,10.51-13.26,11.91Z"/>
        <path class="cls-5" d="M282.95,593.55l6.21-7.77c-1.25,4.51-4.22,9.17-6.21,7.77Z"/>
        <path class="cls-5" d="M352.07,577.91c.35-1.66,1.16-3.41,2.97-3.63-.97,1.22-1.68,2.71-2.97,3.63Z"/>
        <path class="cls-5" d="M358.16,578.56l2.82-3.67c.27,1.84-1.02,3.38-2.82,3.67Z"/>
        <path class="cls-3" d="M458.66,597.23c.16.24.12.58-.07.67-2.34-.01-2.77,1.92-4.16,3.06-4.86,3.97-10.15,8.52-16.87,8.52l-63.09.03c-.64-2.1-.73-4.2.11-5.38l62.86-.44c12.36-.09,21.38-10.97,23.89-22.74,2.04,5.31-2.21,11.28-2.66,16.29Z"/>
      </g>
    </g>
  </g>
</svg>