<svg width="16" height="16" viewBox="0 0 16 16" fill="none" xmlns="http://www.w3.org/2000/svg">
<path d="M4.50033 1.66699C4.87241 1.66699 5.24084 1.74028 5.5846 1.88267C5.92835 2.02506 6.2407 2.23376 6.5038 2.49686C6.7669 2.75996 6.9756 3.0723 7.11799 3.41606C7.26037 3.75981 7.33366 4.12825 7.33366 4.50033V7.33366H4.50033C3.74888 7.33366 3.02821 7.03515 2.49686 6.5038C1.9655 5.97244 1.66699 5.25177 1.66699 4.50033C1.66699 3.74888 1.9655 3.02821 2.49686 2.49686C3.02821 1.9655 3.74888 1.66699 4.50033 1.66699ZM4.50033 8.66699H7.33366V11.5003C7.33366 12.0607 7.16749 12.6085 6.85616 13.0744C6.54483 13.5404 6.10232 13.9035 5.5846 14.118C5.06687 14.3324 4.49718 14.3885 3.94757 14.2792C3.39796 14.1699 2.89311 13.9 2.49686 13.5038C2.10061 13.1075 1.83076 12.6027 1.72144 12.0531C1.61211 11.5035 1.66822 10.9338 1.88267 10.4161C2.09712 9.89833 2.46027 9.45583 2.92621 9.1445C3.39215 8.83316 3.93995 8.66699 4.50033 8.66699ZM11.5003 1.66699C12.2518 1.66699 12.9724 1.9655 13.5038 2.49686C14.0351 3.02821 14.3337 3.74888 14.3337 4.50033C14.3337 5.25177 14.0351 5.97244 13.5038 6.5038C12.9724 7.03515 12.2518 7.33366 11.5003 7.33366H8.66699V4.50033C8.66699 3.74888 8.9655 3.02821 9.49686 2.49686C10.0282 1.9655 10.7489 1.66699 11.5003 1.66699ZM8.66699 8.66699H11.5003C12.0607 8.66699 12.6085 8.83316 13.0744 9.1445C13.5404 9.45583 13.9035 9.89833 14.118 10.4161C14.3324 10.9338 14.3885 11.5035 14.2792 12.0531C14.1699 12.6027 13.9 13.1075 13.5038 13.5038C13.1075 13.9 12.6027 14.1699 12.0531 14.2792C11.5035 14.3885 10.9338 14.3324 10.4161 14.118C9.89833 13.9035 9.45583 13.5404 9.1445 13.0744C8.83317 12.6085 8.66699 12.0607 8.66699 11.5003V8.66699Z" fill="#0F172A"/>
</svg>
