<svg width="21" height="21" viewBox="0 0 21 21" fill="none" xmlns="http://www.w3.org/2000/svg">
<path d="M20.5101 4.18455C20.4561 4.07951 20.3781 3.98872 20.2823 3.91955C20.1866 3.85039 20.0759 3.80482 19.9592 3.78654C19.8425 3.76827 19.7231 3.77781 19.6108 3.81439C19.4985 3.85097 19.3965 3.91355 19.3129 3.99705L16.4329 6.87892C16.2916 7.01825 16.101 7.09635 15.9025 7.09635C15.704 7.09635 15.5135 7.01825 15.3721 6.87892L14.1271 5.63205C14.0575 5.5624 14.0022 5.47971 13.9645 5.38871C13.9268 5.2977 13.9074 5.20016 13.9074 5.10166C13.9074 5.00315 13.9268 4.90561 13.9645 4.81461C14.0022 4.7236 14.0575 4.64091 14.1271 4.57127L16.995 1.70299C17.0809 1.61703 17.1447 1.51146 17.1808 1.39537C17.2169 1.27928 17.2243 1.15616 17.2022 1.0366C17.1802 0.917045 17.1294 0.80464 17.0543 0.709069C16.9791 0.613497 16.8819 0.537624 16.7709 0.487985C14.6048 -0.480452 11.9011 0.0248601 10.1962 1.71705C8.74777 3.15517 8.31605 5.40236 9.01262 7.88252C9.05017 8.01478 9.05039 8.15485 9.01324 8.28722C8.97609 8.4196 8.90303 8.53911 8.80215 8.63252L0.998399 15.7599C0.694387 16.0328 0.44917 16.3649 0.277705 16.7357C0.106241 17.1065 0.0121241 17.5084 0.00109603 17.9169C-0.00993207 18.3253 0.0623597 18.7317 0.213562 19.1112C0.364764 19.4908 0.591706 19.8356 0.880544 20.1245C1.16938 20.4135 1.51406 20.6406 1.89356 20.792C2.27305 20.9433 2.67941 21.0158 3.08783 21.005C3.49626 20.9941 3.89819 20.9002 4.26912 20.7289C4.64004 20.5576 4.97218 20.3125 5.24527 20.0086L12.449 12.1875C12.5411 12.0879 12.6586 12.0154 12.7888 11.9776C12.9191 11.9399 13.0572 11.9384 13.1882 11.9733C13.8943 12.1668 14.6227 12.2671 15.3548 12.2719C16.9204 12.2719 18.2943 11.7652 19.2853 10.7888C21.1204 8.9808 21.4003 5.91424 20.5101 4.18455ZM3.16356 19.4953C2.85484 19.529 2.54327 19.4661 2.27185 19.3152C2.00043 19.1642 1.78255 18.9328 1.64827 18.6528C1.51398 18.3728 1.46993 18.058 1.52217 17.7518C1.57442 17.4457 1.72039 17.1633 1.93994 16.9437C2.1595 16.7241 2.44181 16.578 2.74792 16.5257C3.05403 16.4733 3.36884 16.5173 3.64891 16.6514C3.92898 16.7856 4.16049 17.0034 4.31151 17.2748C4.46252 17.5461 4.52558 17.8577 4.49199 18.1664C4.45504 18.5061 4.30321 18.823 4.06164 19.0647C3.82007 19.3063 3.50323 19.4583 3.16356 19.4953Z" fill="black"/>
</svg>
