<svg width="120" height="120" viewBox="0 0 120 120" fill="none" xmlns="http://www.w3.org/2000/svg">
<rect width="120" height="120" rx="60" fill="url(#paint0_linear_55_171)"/>
<path d="M58.6871 48.2571L50.6708 57.1671C50.3546 57.5177 50.3683 58.0609 50.7052 58.3977C52.8021 60.4946 56.2052 60.4946 58.3021 58.3977L60.4883 56.2115C60.7771 55.9227 61.1414 55.7646 61.5127 55.7371C61.9802 55.6959 62.4614 55.854 62.8189 56.2115L74.9602 68.2496L79.8002 64.3996V44.5996L72.1002 48.9996L70.4639 47.9065C69.3783 47.1844 68.1034 46.7993 66.7996 46.7996H61.9596C61.8839 46.7996 61.8014 46.7996 61.7258 46.8065C60.5639 46.8684 59.4708 47.3909 58.6871 48.2571ZM48.2164 54.9602L55.5589 46.7996H52.8364C51.0833 46.7996 49.4058 47.494 48.1683 48.7315L47.9002 48.9996L40.2002 44.5996V64.3996L50.9527 73.3577C52.5339 74.6777 54.5277 75.3996 56.5833 75.3996H57.6627L57.1814 74.9184C56.5352 74.2721 56.5352 73.2271 57.1814 72.5877C57.8277 71.9484 58.8727 71.9415 59.5121 72.5877L62.3308 75.4065H62.9496C64.2627 75.4065 65.5483 75.1109 66.7171 74.5609L64.8814 72.7184C64.2352 72.0721 64.2352 71.0271 64.8814 70.3877C65.5277 69.7484 66.5727 69.7415 67.2121 70.3877L69.4121 72.5877L70.6152 71.3846C71.2271 70.7727 71.4058 69.8859 71.1377 69.109L61.6571 59.704L60.6327 60.7284C57.2433 64.1177 51.7571 64.1177 48.3677 60.7284C46.7864 59.1471 46.7246 56.6102 48.2164 54.9534V54.9602Z" fill="white"/>
<defs>
<linearGradient id="paint0_linear_55_171" x1="1.12122e-06" y1="13.0518" x2="103.125" y2="108.677" gradientUnits="userSpaceOnUse">
<stop stop-color="#3B82F6"/>
<stop offset="1" stop-color="#4C4FF0"/>
</linearGradient>
</defs>
</svg>
