<svg width="16" height="16" viewBox="0 0 16 16" fill="none" xmlns="http://www.w3.org/2000/svg">
<path d="M4.66634 15.3337C4.29967 15.3337 3.9859 15.2032 3.72501 14.9423C3.46412 14.6814 3.33345 14.3674 3.33301 14.0003V2.00033C3.33301 1.63366 3.46367 1.31988 3.72501 1.05899C3.98634 0.798103 4.30012 0.667437 4.66634 0.666992H11.333C11.6997 0.666992 12.0137 0.797659 12.275 1.05899C12.5363 1.32033 12.6668 1.6341 12.6663 2.00033V4.06699C12.8663 4.14477 13.0275 4.26699 13.1497 4.43366C13.2719 4.60033 13.333 4.78921 13.333 5.00033V6.33366C13.333 6.54477 13.2719 6.73366 13.1497 6.90033C13.0275 7.06699 12.8663 7.18921 12.6663 7.26699V14.0003C12.6663 14.367 12.5359 14.681 12.275 14.9423C12.0141 15.2037 11.7001 15.3341 11.333 15.3337H4.66634ZM7.99967 4.00033C8.18856 4.00033 8.34701 3.93633 8.47501 3.80833C8.60301 3.68033 8.66679 3.5221 8.66634 3.33366C8.6659 3.14521 8.6019 2.98699 8.47434 2.85899C8.34679 2.73099 8.18856 2.66699 7.99967 2.66699C7.81079 2.66699 7.65256 2.73099 7.52501 2.85899C7.39745 2.98699 7.33345 3.14521 7.33301 3.33366C7.33256 3.5221 7.39656 3.68055 7.52501 3.80899C7.65345 3.93744 7.81167 4.00121 7.99967 4.00033Z" fill="white"/>
</svg>
