<svg width="80" height="16" viewBox="0 0 80 16" fill="none" xmlns="http://www.w3.org/2000/svg">
<g clip-path="url(#clip0_47_2)">
<path d="M3.20625 15.4408L4.28125 10.0033L0.1875 6.26582L5.69063 5.60957L7.97813 0.55957L10.3031 5.59082L15.8125 6.20645L11.7469 9.9752L12.8625 15.4033L8.025 12.7002L3.20625 15.4408Z" fill="#FFD759"/>
<path d="M8 8L0.1875 6.26562L4.28125 10.0031L8 8Z" fill="#FABD3B"/>
<path d="M7.9998 8L3.20605 15.4406L8.0248 12.7L12.8623 15.4031L7.9998 8Z" fill="#FABD3B"/>
<path d="M8 7.9998L15.8125 6.20605L11.7469 9.9748L8 7.9998Z" fill="#FABD3B"/>
<path d="M7.97852 0.55957L8.00039 8.0002L10.3035 5.59082L7.97852 0.55957Z" fill="#FABD3B"/>
</g>
<g clip-path="url(#clip1_47_2)">
<path d="M19.2062 15.4408L20.2812 10.0033L16.1875 6.26582L21.6906 5.60957L23.9781 0.55957L26.3031 5.59082L31.8125 6.20645L27.7469 9.9752L28.8625 15.4033L24.025 12.7002L19.2062 15.4408Z" fill="#FFD759"/>
<path d="M24 8L16.1875 6.26562L20.2812 10.0031L24 8Z" fill="#FABD3B"/>
<path d="M23.9998 8L19.2061 15.4406L24.0248 12.7L28.8623 15.4031L23.9998 8Z" fill="#FABD3B"/>
<path d="M24 7.9998L31.8125 6.20605L27.7469 9.9748L24 7.9998Z" fill="#FABD3B"/>
<path d="M23.9785 0.55957L24.0004 8.0002L26.3035 5.59082L23.9785 0.55957Z" fill="#FABD3B"/>
</g>
<g clip-path="url(#clip2_47_2)">
<path d="M35.2062 15.4408L36.2812 10.0033L32.1875 6.26582L37.6906 5.60957L39.9781 0.55957L42.3031 5.59082L47.8125 6.20645L43.7469 9.9752L44.8625 15.4033L40.025 12.7002L35.2062 15.4408Z" fill="#FFD759"/>
<path d="M40 8L32.1875 6.26562L36.2812 10.0031L40 8Z" fill="#FABD3B"/>
<path d="M39.9998 8L35.2061 15.4406L40.0248 12.7L44.8623 15.4031L39.9998 8Z" fill="#FABD3B"/>
<path d="M40 7.9998L47.8125 6.20605L43.7469 9.9748L40 7.9998Z" fill="#FABD3B"/>
<path d="M39.9785 0.55957L40.0004 8.0002L42.3035 5.59082L39.9785 0.55957Z" fill="#FABD3B"/>
</g>
<g clip-path="url(#clip3_47_2)">
<path d="M51.2062 15.4408L52.2812 10.0033L48.1875 6.26582L53.6906 5.60957L55.9781 0.55957L58.3031 5.59082L63.8125 6.20645L59.7469 9.9752L60.8625 15.4033L56.025 12.7002L51.2062 15.4408Z" fill="#FFD759"/>
<path d="M56 8L48.1875 6.26562L52.2812 10.0031L56 8Z" fill="#FABD3B"/>
<path d="M55.9998 8L51.2061 15.4406L56.0248 12.7L60.8623 15.4031L55.9998 8Z" fill="#FABD3B"/>
<path d="M56 7.9998L63.8125 6.20605L59.7469 9.9748L56 7.9998Z" fill="#FABD3B"/>
<path d="M55.9785 0.55957L56.0004 8.0002L58.3035 5.59082L55.9785 0.55957Z" fill="#FABD3B"/>
</g>
<g clip-path="url(#clip4_47_2)">
<path d="M67.2062 15.4408L68.2812 10.0033L64.1875 6.26582L69.6906 5.60957L71.9781 0.55957L74.3031 5.59082L79.8125 6.20645L75.7469 9.9752L76.8625 15.4033L72.025 12.7002L67.2062 15.4408Z" fill="#FFD759"/>
<path d="M72 8L64.1875 6.26562L68.2812 10.0031L72 8Z" fill="#FABD3B"/>
<path d="M71.9998 8L67.2061 15.4406L72.0248 12.7L76.8623 15.4031L71.9998 8Z" fill="#FABD3B"/>
<path d="M72 7.9998L79.8125 6.20605L75.7469 9.9748L72 7.9998Z" fill="#FABD3B"/>
<path d="M71.9785 0.55957L72.0004 8.0002L74.3035 5.59082L71.9785 0.55957Z" fill="#FABD3B"/>
</g>
<defs>
<clipPath id="clip0_47_2">
<rect width="16" height="16" fill="white"/>
</clipPath>
<clipPath id="clip1_47_2">
<rect width="16" height="16" fill="white" transform="translate(16)"/>
</clipPath>
<clipPath id="clip2_47_2">
<rect width="16" height="16" fill="white" transform="translate(32)"/>
</clipPath>
<clipPath id="clip3_47_2">
<rect width="16" height="16" fill="white" transform="translate(48)"/>
</clipPath>
<clipPath id="clip4_47_2">
<rect width="16" height="16" fill="white" transform="translate(64)"/>
</clipPath>
</defs>
</svg>
