<svg width="32" height="32" viewBox="0 0 32 32" fill="none" xmlns="http://www.w3.org/2000/svg">
<g clip-path="url(#clip0_47_43)">
<rect width="32" height="32" rx="16" fill="#E9EFFE"/>
<g clip-path="url(#clip1_47_43)">
<path d="M4 -0.1875H28C30.2071 -0.1875 32 1.62637 32 3.85938V28.1406C32 30.3736 30.2071 32.1875 28 32.1875H4C1.79286 32.1875 0 30.3736 0 28.1406V3.85938C0 1.62637 1.79286 -0.1875 4 -0.1875ZM19.35 17.3152C19.8214 13.4924 21.2 12.2928 23.0214 12.2928C24.8286 12.2928 26.2286 13.7525 26.2286 15.8844C26.2286 18.0162 24.8214 19.476 23.0214 19.476C21.0286 19.476 19.7143 17.9223 19.35 17.3152ZM17.4429 14.2945C16.8571 13.1744 16.4214 11.6713 16.0714 10.2766H11.5786V15.9205C11.5786 17.9729 10.6571 19.4904 8.85 19.4904C7.04286 19.4904 6.00714 17.9801 6.00714 15.9277L6.02857 10.2838H3.44286V15.9277C3.44286 17.5754 3.97143 19.0713 4.93571 20.1336C5.92857 21.232 7.27857 21.8102 8.85 21.8102C11.9714 21.8102 14.15 19.3893 14.15 15.9205V12.1266C14.4786 13.3768 15.25 15.776 16.7357 17.8861L15.3571 25.8715H17.9857L18.9 20.2059C19.2 20.4588 19.5214 20.6828 19.8571 20.8852C20.7357 21.4488 21.7429 21.7668 22.7786 21.7957H23.0214C26.2429 21.7957 28.8 19.2736 28.8 15.8771C28.8 12.4807 26.2357 9.93691 23.0214 9.93691C19.7786 9.93691 17.9571 12.0832 17.4429 14.2801V14.2945Z" fill="#0F172A"/>
</g>
</g>
<defs>
<clipPath id="clip0_47_43">
<rect width="32" height="32" rx="16" fill="white"/>
</clipPath>
<clipPath id="clip1_47_43">
<rect width="32" height="37" fill="white" transform="translate(0 -2.5)"/>
</clipPath>
</defs>
</svg>
