<svg width="24" height="24" viewBox="0 0 24 24" fill="none" xmlns="http://www.w3.org/2000/svg">
<path d="M4.0681 22.978C5.7036 23.111 8.2996 23.25 12.0001 23.25C15.7006 23.25 18.2966 23.111 19.9321 22.978C21.5761 22.8445 22.8446 21.576 22.9781 19.932C23.1111 18.2965 23.2501 15.7005 23.2501 12C23.2501 10.145 23.2151 8.568 23.1636 7.25H0.836597C0.776936 8.83262 0.748097 10.4163 0.750097 12C0.750097 15.7005 0.889097 18.2965 1.0221 19.932C1.1556 21.576 2.4241 22.8445 4.0681 22.978Z" fill="white"/>
<path fill-rule="evenodd" clip-rule="evenodd" d="M0.907227 5.75C0.943893 5.10567 0.98206 4.545 1.02173 4.068C1.15523 2.424 2.42373 1.1555 4.06773 1.022C5.70323 0.889 8.29923 0.75 11.9997 0.75C15.7002 0.75 18.2962 0.889 19.9317 1.022C21.5757 1.1555 22.8442 2.424 22.9777 4.068C23.0171 4.54467 23.0552 5.10533 23.0922 5.75H0.907227ZM3.74973 3.5C3.74973 3.30109 3.82874 3.11032 3.9694 2.96967C4.11005 2.82902 4.30081 2.75 4.49973 2.75H5.49973C5.69864 2.75 5.8894 2.82902 6.03006 2.96967C6.17071 3.11032 6.24973 3.30109 6.24973 3.5C6.24973 3.69891 6.17071 3.88968 6.03006 4.03033C5.8894 4.17098 5.69864 4.25 5.49973 4.25H4.49973C4.30081 4.25 4.11005 4.17098 3.9694 4.03033C3.82874 3.88968 3.74973 3.69891 3.74973 3.5ZM8.49973 2.75C8.30081 2.75 8.11005 2.82902 7.9694 2.96967C7.82874 3.11032 7.74973 3.30109 7.74973 3.5C7.74973 3.69891 7.82874 3.88968 7.9694 4.03033C8.11005 4.17098 8.30081 4.25 8.49973 4.25H9.49973C9.69864 4.25 9.8894 4.17098 10.0301 4.03033C10.1707 3.88968 10.2497 3.69891 10.2497 3.5C10.2497 3.30109 10.1707 3.11032 10.0301 2.96967C9.8894 2.82902 9.69864 2.75 9.49973 2.75H8.49973Z" fill="white"/>
</svg>
